<?xml version="1.0" encoding="UTF-8"?><svg id="_Überschriften" xmlns="http://www.w3.org/2000/svg" viewBox="0 0 600 363.28"><polyline points="380.69 256.27 380.69 188.28 323.4 188.28 323.4 146.73" fill="none" stroke="#b0c1ff" stroke-linecap="round" stroke-linejoin="round" stroke-width="3"/><polyline points="220.78 256.27 220.78 188.28 278.07 188.28 278.07 146.73" fill="none" stroke="#b0c1ff" stroke-linecap="round" stroke-linejoin="round" stroke-width="3"/><polyline points="65.28 256.9 65.28 141.06 534.31 137.91 534.31 257.53" fill="none" stroke="#b0c1ff" stroke-linecap="round" stroke-linejoin="round" stroke-width="3"/><g id="Computer_2"><g><polygon points="80.62 356.91 48.01 356.91 49.88 342.88 79.03 342.88 80.62 356.91" fill="#858585"/><polygon points="49.88 342.88 79.03 342.88 79.28 345.12 49.58 345.12 49.88 342.88" fill="#676766"/><path d="M0,331.12v8.67c0,1.76,1.44,3.2,3.2,3.2H125.44c1.76,0,3.2-1.44,3.2-3.2v-8.67H0Z" fill="#b3b3b3"/><path d="M128.63,257.54c0-1.76-1.44-3.2-3.2-3.2H3.2c-1.76,0-3.2,1.44-3.2,3.2v73.58H128.63v-73.58Z" fill="#535252"/><rect x="4.53" y="258.61" width="119.57" height="68.25" rx="1.77" ry="1.77" fill="#f0f0ef"/><path d="M4.53,264.92H124.1v-5.13c0-.66-.53-1.19-1.19-1.19H5.72c-.66,0-1.19,.53-1.19,1.19v5.13Z" fill="#6182ff"/><polygon points="48.01 356.91 80.62 356.91 86.36 358.27 42.27 358.3 48.01 356.91" fill="#d1d0d1"/><polygon points="86.06 360.93 42.57 360.93 42.28 358.3 86.36 358.27 86.06 360.93" fill="#858585"/><path d="M66.61,337.43c0,1.26-1.02,2.29-2.29,2.29s-2.29-1.02-2.29-2.29,1.02-2.29,2.29-2.29,2.29,1.02,2.29,2.29Z" fill="#1f1f1f"/><g><polygon points="76.17 258.61 7.89 326.89 30.48 326.89 98.4 258.61 76.17 258.61" fill="#fff" opacity=".3"/><polygon points="107.48 258.61 39.2 326.89 51.6 326.89 119.51 258.61 107.48 258.61" fill="#fff" opacity=".3"/></g></g></g><g id="Computer_2-2"><g><polygon points="237.39 356.91 204.78 356.91 206.64 342.88 235.79 342.88 237.39 356.91" fill="#858585"/><polygon points="206.64 342.88 235.79 342.88 236.05 345.12 206.35 345.12 206.64 342.88" fill="#676766"/><path d="M156.77,331.12v8.67c0,1.76,1.44,3.2,3.2,3.2h122.24c1.76,0,3.2-1.44,3.2-3.2v-8.67H156.77Z" fill="#b3b3b3"/><path d="M285.4,257.54c0-1.76-1.44-3.2-3.2-3.2h-122.24c-1.76,0-3.2,1.44-3.2,3.2v73.58h128.63v-73.58Z" fill="#535252"/><rect x="161.3" y="258.61" width="119.57" height="68.25" rx="1.77" ry="1.77" fill="#f0f0ef"/><path d="M161.3,264.92h119.57v-5.13c0-.66-.53-1.19-1.19-1.19h-117.19c-.66,0-1.19,.53-1.19,1.19v5.13Z" fill="#6182ff"/><polygon points="204.78 356.91 237.39 356.91 243.13 358.27 199.04 358.3 204.78 356.91" fill="#d1d0d1"/><polygon points="242.83 360.93 199.34 360.93 199.05 358.3 243.13 358.27 242.83 360.93" fill="#858585"/><path d="M223.37,337.43c0,1.26-1.02,2.29-2.29,2.29s-2.29-1.02-2.29-2.29,1.02-2.29,2.29-2.29,2.29,1.02,2.29,2.29Z" fill="#1f1f1f"/><g><polygon points="232.93 258.61 164.65 326.89 187.25 326.89 255.16 258.61 232.93 258.61" fill="#fff" opacity=".3"/><polygon points="264.25 258.61 195.97 326.89 208.36 326.89 276.28 258.61 264.25 258.61" fill="#fff" opacity=".3"/></g></g></g><g id="Computer_2-3"><g><polygon points="394.16 356.91 361.55 356.91 363.41 342.88 392.56 342.88 394.16 356.91" fill="#858585"/><polygon points="363.41 342.88 392.56 342.88 392.82 345.12 363.11 345.12 363.41 342.88" fill="#676766"/><path d="M313.54,331.12v8.67c0,1.76,1.44,3.2,3.2,3.2h122.24c1.76,0,3.2-1.44,3.2-3.2v-8.67h-128.63Z" fill="#b3b3b3"/><path d="M442.17,257.54c0-1.76-1.44-3.2-3.2-3.2h-122.24c-1.76,0-3.2,1.44-3.2,3.2v73.58h128.63v-73.58Z" fill="#535252"/><rect x="318.07" y="258.61" width="119.57" height="68.25" rx="1.77" ry="1.77" fill="#f0f0ef"/><path d="M318.07,264.92h119.57v-5.13c0-.66-.53-1.19-1.19-1.19h-117.19c-.66,0-1.19,.53-1.19,1.19v5.13Z" fill="#6182ff"/><polygon points="361.55 356.91 394.16 356.91 399.9 358.27 355.81 358.3 361.55 356.91" fill="#d1d0d1"/><polygon points="399.6 360.93 356.11 360.93 355.82 358.3 399.9 358.27 399.6 360.93" fill="#858585"/><path d="M380.14,337.43c0,1.26-1.02,2.29-2.29,2.29s-2.29-1.02-2.29-2.29,1.02-2.29,2.29-2.29,2.29,1.02,2.29,2.29Z" fill="#1f1f1f"/><g><polygon points="389.7 258.61 321.42 326.89 344.02 326.89 411.93 258.61 389.7 258.61" fill="#fff" opacity=".3"/><polygon points="421.01 258.61 352.73 326.89 365.13 326.89 433.05 258.61 421.01 258.61" fill="#fff" opacity=".3"/></g></g></g><g id="Computer_2-4"><g><polygon points="550.93 356.91 518.32 356.91 520.18 342.88 549.33 342.88 550.93 356.91" fill="#858585"/><polygon points="520.18 342.88 549.33 342.88 549.59 345.12 519.88 345.12 520.18 342.88" fill="#676766"/><path d="M470.31,331.12v8.67c0,1.76,1.44,3.2,3.2,3.2h122.24c1.76,0,3.2-1.44,3.2-3.2v-8.67h-128.63Z" fill="#b3b3b3"/><path d="M598.94,257.54c0-1.76-1.44-3.2-3.2-3.2h-122.24c-1.76,0-3.2,1.44-3.2,3.2v73.58h128.63v-73.58Z" fill="#535252"/><rect x="474.84" y="258.61" width="119.57" height="68.25" rx="1.77" ry="1.77" fill="#f0f0ef"/><path d="M474.84,264.92h119.57v-5.13c0-.66-.53-1.19-1.19-1.19h-117.19c-.66,0-1.19,.53-1.19,1.19v5.13Z" fill="#6182ff"/><polygon points="518.32 356.91 550.93 356.91 556.67 358.27 512.58 358.3 518.32 356.91" fill="#d1d0d1"/><polygon points="556.37 360.93 512.88 360.93 512.59 358.3 556.67 358.27 556.37 360.93" fill="#858585"/><path d="M536.91,337.43c0,1.26-1.02,2.29-2.29,2.29s-2.29-1.02-2.29-2.29,1.02-2.29,2.29-2.29,2.29,1.02,2.29,2.29Z" fill="#1f1f1f"/><g><polygon points="546.47 258.61 478.19 326.89 500.79 326.89 568.7 258.61 546.47 258.61" fill="#fff" opacity=".3"/><polygon points="577.78 258.61 509.5 326.89 521.9 326.89 589.82 258.61 577.78 258.61" fill="#fff" opacity=".3"/></g></g></g><g id="Proxyserver"><rect x="262.98" width="74.03" height="150.99" rx="4.9" ry="4.9" fill="#676766"/><path d="M261.63,132.75h76.74v16.25c0,1.1-.89,1.99-1.99,1.99h-72.76c-1.1,0-1.99-.89-1.99-1.99v-16.25h0Z" fill="#858585"/><line x1="327.83" y1="16.34" x2="270.13" y2="16.34" fill="none" stroke="#333" stroke-miterlimit="10" stroke-width="3.83"/><line x1="327.83" y1="29.7" x2="270.13" y2="29.7" fill="none" stroke="#333" stroke-miterlimit="10" stroke-width="3.83"/><line x1="327.83" y1="43.07" x2="270.13" y2="43.07" fill="none" stroke="#333" stroke-miterlimit="10" stroke-width="3.83"/><line x1="327.83" y1="56.43" x2="270.13" y2="56.43" fill="none" stroke="#333" stroke-miterlimit="10" stroke-width="3.83"/><line x1="300" y1="56.43" x2="287.03" y2="56.43" fill="none" stroke="#54cc4e" stroke-miterlimit="10" stroke-width="3.83"/><line x1="322.08" y1="43.07" x2="309.11" y2="43.07" fill="none" stroke="#54cc4e" stroke-miterlimit="10" stroke-width="3.83"/><line x1="287.03" y1="29.7" x2="274.06" y2="29.7" fill="none" stroke="#54cc4e" stroke-miterlimit="10" stroke-width="3.83"/><line x1="295.71" y1="16.34" x2="282.74" y2="16.34" fill="none" stroke="#54cc4e" stroke-miterlimit="10" stroke-width="3.83"/></g></svg>