<?xml version="1.0" encoding="utf-8"?>
<svg viewBox="0 0 500 500" xmlns="http://www.w3.org/2000/svg" xmlns:xlink="http://www.w3.org/1999/xlink">
  <defs>
    <linearGradient id="linear-gradient" x1="178.375" y1="112.195" x2="223.649" y2="112.195" gradientUnits="userSpaceOnUse" gradientTransform="matrix(1, 0, 0, 1, 4.998291, 93.752139)">
      <stop offset="0" stop-color="#b800e3" stop-opacity=".19"/>
      <stop offset="1" stop-color="#ffa400" stop-opacity=".82"/>
    </linearGradient>
    <linearGradient id="linear-gradient-2" x1="178.37" y1="175.59" x2="223.65" y2="175.59" gradientTransform="matrix(1, 0, 0, 1, -153.390091, 181.870265)" xlink:href="#linear-gradient"/>
    <linearGradient id="linear-gradient-3" x1="285.09" y1="112.195" x2="310.72" y2="112.195" gradientUnits="userSpaceOnUse" gradientTransform="matrix(1, 0, 0, 1, 4.998291, 93.752139)">
      <stop offset="0" stop-color="#ffa400" stop-opacity=".82"/>
      <stop offset="1" stop-color="#ff414e" stop-opacity=".53"/>
    </linearGradient>
    <linearGradient id="linear-gradient-4" x1="285.09" y1="175.591" x2="310.72" y2="175.591" gradientTransform="matrix(1, 0, 0, 1, -153.390091, 181.870265)" xlink:href="#linear-gradient-3"/>
  </defs>
  <path class="cls-1" d="M 236.634 198.98 L 278.494 198.98 L 278.494 212.135 L 236.634 212.135 L 236.634 198.98 Z" style="fill: rgb(255, 164, 0); opacity: 0.82;"/>
  <path fill="#b800e3" opacity=".19" d="M 32.569 168.134 L 159.238 168.134 L 159.238 318.087 L 32.569 318.087 L 32.569 168.134 Z" style="transform-box: fill-box; transform-origin: 50% 50%;" transform="matrix(0, 1, -1, 0, 0.000022, 0.000003)"/>
  <g opacity=".53" transform="matrix(1, 0, 0, 1, -158.388382, 88.118118)"/>
  <path class="cls-6" d="M 295.441 171.979 L 503.844 171.979 L 503.844 321.932 L 295.441 321.932 L 295.441 171.979 Z" style="fill: rgb(0, 168, 214); opacity: 0.55; transform-box: fill-box; transform-origin: 50% 50%;" transform="matrix(0, 1, -1, 0, -0.000024, 0.00004)"/>
  <path class="cls-7" d="M 20.716 158.405 L 28.777 158.405 L 28.777 160.113 L 22.626 160.113 L 22.626 162.937 L 28.078 162.937 L 28.078 164.646 L 22.626 164.646 L 22.626 167.566 L 28.854 167.566 L 28.854 169.275 L 20.716 169.275 L 20.716 158.405 Z M 30.193 158.405 L 32.306 158.405 L 35.584 166.761 L 38.846 158.405 L 40.911 158.405 L 36.411 169.356 L 34.714 169.356 L 30.193 158.405 Z M 42.78 158.405 L 50.842 158.405 L 50.842 160.113 L 44.69 160.113 L 44.69 162.937 L 50.143 162.937 L 50.143 164.646 L 44.69 164.646 L 44.69 167.566 L 50.919 167.566 L 50.919 169.275 L 42.78 169.275 L 42.78 158.405 Z M 53.19 158.405 L 54.961 158.405 L 60.786 165.922 L 60.786 158.405 L 62.665 158.405 L 62.665 169.278 L 61.065 169.278 L 55.065 161.543 L 55.065 169.278 L 53.19 169.278 L 53.19 158.405 Z M 68.137 160.175 L 64.688 160.175 L 64.688 158.405 L 73.512 158.405 L 73.512 160.175 L 70.063 160.175 L 70.063 169.275 L 68.137 169.275 L 68.137 160.175 Z M 80.199 158.405 L 84.486 158.405 C 87.033 158.405 88.618 159.849 88.618 162.04 L 88.618 162.071 C 88.618 164.509 86.661 165.783 84.269 165.783 L 82.109 165.783 L 82.109 169.283 L 80.199 169.283 L 80.199 158.405 Z M 84.331 164.059 C 85.775 164.059 86.676 163.251 86.676 162.117 L 86.676 162.086 C 86.676 160.812 85.76 160.144 84.331 160.144 L 82.106 160.144 L 82.106 164.059 L 84.331 164.059 Z M 90.575 158.405 L 95.421 158.405 C 96.569 158.341 97.696 158.732 98.559 159.492 C 99.157 160.124 99.481 160.967 99.459 161.837 L 99.459 161.869 C 99.507 163.445 98.422 164.831 96.881 165.162 L 99.816 169.278 L 97.549 169.278 L 94.878 165.488 L 92.485 165.488 L 92.485 169.278 L 90.575 169.278 L 90.575 158.405 Z M 95.281 163.795 C 96.648 163.795 97.519 163.08 97.519 161.977 L 97.519 161.946 C 97.519 160.781 96.68 160.146 95.266 160.146 L 92.485 160.146 L 92.485 163.797 L 95.281 163.795 Z M 101.327 163.873 L 101.327 163.837 C 101.371 159.46 106.138 156.773 109.906 159.001 C 111.609 160.008 112.667 161.828 112.698 163.806 L 112.698 163.837 C 112.653 168.214 107.887 170.901 104.119 168.675 C 102.415 167.668 101.358 165.848 101.327 163.869 L 101.327 163.873 Z M 110.694 163.873 L 110.694 163.837 C 110.774 161.734 109.098 159.982 106.994 159.969 C 104.903 159.972 103.235 161.717 103.328 163.806 L 103.328 163.837 C 103.248 165.937 104.926 167.684 107.028 167.69 C 109.116 167.698 110.788 165.96 110.699 163.873 L 110.694 163.873 Z M 115.017 158.405 L 119.07 158.405 C 122.487 158.405 124.849 160.75 124.849 163.81 L 124.849 163.837 C 124.85 166.977 122.203 169.467 119.07 169.274 L 115.017 169.274 L 115.017 158.405 Z M 116.927 160.144 L 116.927 167.537 L 119.07 167.537 C 121.165 167.675 122.921 165.971 122.845 163.872 L 122.845 163.837 C 122.926 161.731 121.174 160.014 119.07 160.137 L 116.927 160.144 Z M 126.999 164.665 L 126.999 158.405 L 128.909 158.405 L 128.909 164.587 C 128.909 166.606 129.95 167.678 131.658 167.678 C 133.366 167.678 134.393 166.669 134.393 164.665 L 134.393 158.405 L 136.303 158.405 L 136.303 164.571 C 136.303 167.818 134.47 169.449 131.628 169.449 C 128.799 169.449 126.999 167.818 126.999 164.665 Z M 138.447 163.873 L 138.447 163.837 C 138.376 160.708 140.927 158.151 144.056 158.214 C 145.649 158.155 147.194 158.77 148.311 159.908 L 147.084 161.321 C 146.29 160.482 145.194 159.995 144.04 159.969 C 141.975 160.007 140.35 161.744 140.451 163.806 L 140.451 163.837 C 140.344 165.905 141.97 167.65 144.04 167.69 C 145.231 167.682 146.363 167.174 147.162 166.29 L 148.389 167.537 C 147.282 168.809 145.663 169.516 143.978 169.463 C 140.885 169.499 138.378 166.965 138.447 163.873 Z M 150.399 158.405 L 158.461 158.405 L 158.461 160.113 L 152.31 160.113 L 152.31 162.937 L 157.762 162.937 L 157.762 164.646 L 152.31 164.646 L 152.31 167.566 L 158.538 167.566 L 158.538 169.275 L 150.399 169.275 L 150.399 158.405 Z M 160.808 158.405 L 165.653 158.405 C 166.801 158.341 167.928 158.732 168.791 159.492 C 169.389 160.124 169.713 160.967 169.691 161.837 L 169.691 161.869 C 169.739 163.445 168.654 164.831 167.113 165.162 L 170.049 169.278 L 167.78 169.278 L 165.109 165.488 L 162.717 165.488 L 162.717 169.278 L 160.807 169.278 L 160.808 158.405 Z M 165.514 163.795 C 166.881 163.795 167.751 163.08 167.751 161.977 L 167.751 161.946 C 167.751 160.781 166.912 160.146 165.498 160.146 L 162.718 160.146 L 162.718 163.797 L 165.514 163.795 Z M 314.498 122.502 L 322.56 122.502 L 322.56 124.21 L 316.409 124.21 L 316.409 127.035 L 321.861 127.035 L 321.861 128.744 L 316.409 128.744 L 316.409 131.663 L 322.637 131.663 L 322.637 133.375 L 314.498 133.375 L 314.498 122.502 Z M 323.976 122.502 L 326.088 122.502 L 329.367 130.859 L 332.628 122.502 L 334.694 122.502 L 330.194 133.454 L 328.501 133.454 L 323.976 122.502 Z M 336.563 122.502 L 344.624 122.502 L 344.624 124.21 L 338.473 124.21 L 338.473 127.035 L 343.925 127.035 L 343.925 128.744 L 338.473 128.744 L 338.473 131.663 L 344.702 131.663 L 344.702 133.375 L 336.563 133.375 L 336.563 122.502 Z M 346.973 122.502 L 348.744 122.502 L 354.569 130.02 L 354.569 122.502 L 356.448 122.502 L 356.448 133.375 L 354.848 133.375 L 348.848 125.64 L 348.848 133.375 L 346.969 133.375 L 346.973 122.502 Z M 361.918 124.273 L 358.47 124.273 L 358.47 122.502 L 367.293 122.502 L 367.293 124.273 L 363.845 124.273 L 363.845 133.373 L 361.918 133.373 L 361.918 124.273 Z M 373.497 127.97 L 373.497 127.935 C 373.426 124.807 375.976 122.25 379.105 122.312 C 380.698 122.253 382.243 122.867 383.361 124.005 L 382.133 125.418 C 381.339 124.58 380.243 124.093 379.089 124.067 C 377.024 124.105 375.399 125.842 375.5 127.904 L 375.5 127.935 C 375.393 130.002 377.019 131.747 379.089 131.787 C 380.28 131.779 381.412 131.271 382.211 130.387 L 383.438 131.635 C 382.332 132.908 380.712 133.615 379.027 133.562 C 375.934 133.597 373.427 131.063 373.497 127.97 Z M 384.653 127.97 L 384.653 127.935 C 384.697 123.558 389.464 120.871 393.232 123.099 C 394.935 124.106 395.993 125.926 396.024 127.904 L 396.024 127.935 C 395.979 132.312 391.213 134.999 387.445 132.772 C 385.741 131.765 384.684 129.945 384.653 127.966 L 384.653 127.97 Z M 394.02 127.97 L 394.02 127.935 C 394.1 125.832 392.424 124.08 390.32 124.067 C 388.228 124.07 386.561 125.815 386.654 127.904 L 386.654 127.935 C 386.574 130.035 388.252 131.782 390.354 131.787 C 392.439 131.791 394.106 130.054 394.018 127.97 L 394.02 127.97 Z M 398.342 122.502 L 400.118 122.502 L 405.943 130.02 L 405.943 122.502 L 407.818 122.502 L 407.818 133.375 L 406.218 133.375 L 400.218 125.64 L 400.218 133.375 L 398.339 133.375 L 398.342 122.502 Z M 409.887 131.791 L 411.037 130.424 C 411.959 131.315 413.186 131.821 414.469 131.837 C 415.65 131.837 416.396 131.279 416.396 130.471 L 416.396 130.44 C 416.396 129.663 415.96 129.24 413.942 128.778 C 411.626 128.218 410.322 127.535 410.322 125.531 L 410.322 125.5 C 410.322 123.636 411.875 122.347 414.035 122.347 C 415.47 122.319 416.869 122.803 417.98 123.713 L 416.955 125.159 C 416.12 124.473 415.083 124.079 414.003 124.039 C 412.885 124.039 412.233 124.615 412.233 125.33 L 412.233 125.36 C 412.233 126.199 412.733 126.572 414.827 127.069 C 417.127 127.628 418.306 128.452 418.306 130.253 L 418.306 130.285 C 418.306 132.319 416.706 133.531 414.423 133.531 C 412.746 133.539 411.128 132.918 409.887 131.791 Z M 420.391 128.762 L 420.391 122.502 L 422.301 122.502 L 422.301 128.684 C 422.301 130.704 423.342 131.776 425.05 131.776 C 426.758 131.776 427.785 130.766 427.785 128.762 L 427.785 122.502 L 429.695 122.502 L 429.695 128.668 C 429.695 131.915 427.862 133.546 425.02 133.546 C 422.193 133.546 420.391 131.915 420.391 128.762 Z M 432.325 122.502 L 434.359 122.502 L 437.667 127.644 L 440.976 122.502 L 443.011 122.502 L 443.011 133.375 L 441.101 133.375 L 441.101 125.575 L 437.667 130.701 L 437.606 130.701 L 434.206 125.606 L 434.206 133.375 L 432.327 133.375 L 432.325 122.502 Z M 445.811 122.502 L 453.872 122.502 L 453.872 124.21 L 447.718 124.21 L 447.718 127.035 L 453.17 127.035 L 453.17 128.744 L 447.718 128.744 L 447.718 131.663 L 453.947 131.663 L 453.947 133.375 L 445.808 133.375 L 445.811 122.502 Z M 456.218 122.502 L 461.064 122.502 C 462.212 122.439 463.339 122.829 464.202 123.589 C 464.8 124.221 465.124 125.065 465.102 125.935 L 465.102 125.966 C 465.15 127.543 464.065 128.928 462.523 129.259 L 465.459 133.375 L 463.191 133.375 L 460.52 129.585 L 458.127 129.585 L 458.127 133.375 L 456.218 133.375 L 456.218 122.502 Z M 460.924 127.892 C 462.291 127.892 463.161 127.177 463.161 126.075 L 463.161 126.043 C 463.161 124.878 462.323 124.243 460.909 124.243 L 458.128 124.243 L 458.128 127.893 L 460.924 127.892 Z M 467.037 128.917 C 467.037 125.982 468.512 123.823 471.337 122.269 L 472.161 123.527 C 469.954 124.988 468.914 126.603 468.914 128.917 C 468.914 131.231 469.954 132.831 472.161 134.307 L 471.337 135.566 C 468.512 134.012 467.037 131.853 467.037 128.917 Z M 473.578 131.791 L 474.727 130.424 C 475.649 131.315 476.877 131.821 478.16 131.837 C 479.34 131.837 480.086 131.279 480.086 130.471 L 480.086 130.44 C 480.086 129.663 479.651 129.24 477.631 128.778 C 475.317 128.218 474.012 127.535 474.012 125.531 L 474.012 125.5 C 474.012 123.636 475.566 122.347 477.725 122.347 C 479.16 122.318 480.559 122.803 481.67 123.713 L 480.645 125.159 C 479.81 124.473 478.773 124.079 477.694 124.039 C 476.576 124.039 475.923 124.615 475.923 125.33 L 475.923 125.36 C 475.923 126.199 476.423 126.572 478.517 127.069 C 480.817 127.628 481.997 128.452 481.997 130.253 L 481.997 130.285 C 481.997 132.319 480.397 133.531 478.114 133.531 C 476.437 133.539 474.819 132.918 473.578 131.791 Z M 483.6 134.307 C 485.805 132.831 486.846 131.232 486.846 128.917 C 486.846 126.602 485.805 124.988 483.6 123.527 L 484.423 122.269 C 487.249 123.823 488.723 125.982 488.723 128.917 C 488.723 131.852 487.246 134.017 484.423 135.566 L 483.6 134.307 Z" style="fill: rgb(51, 51, 51);"/>
  <path fill="url(#linear-gradient)" d="M 228.648 205.947 L 217.932 199.76 L 217.932 203.879 L 183.374 203.879 L 183.374 208.016 L 217.932 208.016 L 217.932 212.135 L 228.648 205.947 Z"/>
  <path fill="url(#linear-gradient-2)" d="M 217.929 275.532 L 217.929 271.412 L 183.369 271.412 L 183.369 267.272 L 217.929 267.272 L 217.929 263.152 L 228.649 269.342 L 217.929 275.532 Z"/>
  <path fill="url(#linear-gradient-3)" d="M 304.999 212.132 L 304.999 207.832 L 297.549 212.132 L 297.549 207.832 L 290.089 212.132 L 290.089 199.762 L 297.549 204.072 L 297.549 199.762 L 304.999 204.072 L 304.999 199.762 L 315.719 205.952 L 304.999 212.132 Z"/>
  <path class="cls-11" d="M 131.244 243.109 L 138.468 239.096 C 138.02 234.162 136.73 229.34 134.654 224.841 L 126.385 224.978 L 130.634 217.893 C 127.77 213.849 124.241 210.319 120.199 207.452 L 113.114 211.7 L 113.251 203.432 C 108.751 201.356 103.93 200.066 98.995 199.618 L 94.983 206.842 L 90.969 199.618 C 86.034 200.066 81.213 201.356 76.714 203.432 L 76.851 211.7 L 69.764 207.452 C 65.721 210.317 62.192 213.846 59.327 217.889 L 63.576 224.974 L 55.307 224.837 C 53.231 229.336 51.941 234.158 51.493 239.092 L 58.717 243.105 L 51.493 247.118 C 51.941 252.053 53.231 256.875 55.307 261.374 L 63.576 261.237 L 59.327 268.322 C 62.192 272.365 65.721 275.894 69.764 278.759 L 76.849 274.51 L 76.712 282.779 C 81.211 284.855 86.032 286.145 90.967 286.593 L 94.981 279.369 L 98.993 286.593 C 103.928 286.145 108.749 284.855 113.249 282.779 L 113.112 274.51 L 120.197 278.759 C 124.24 275.894 127.769 272.365 130.634 268.322 L 126.385 261.237 L 134.654 261.374 C 136.73 256.875 138.02 252.053 138.468 247.118 L 131.244 243.109 Z M 94.98 268.381 C 75.525 268.381 63.366 247.321 73.093 230.473 C 82.821 213.625 107.139 213.625 116.866 230.473 C 119.084 234.315 120.252 238.673 120.252 243.109 C 120.252 257.067 108.937 268.382 94.98 268.381 Z" style="fill: rgb(255, 255, 255);"/>
  <path class="cls-7" d="M 89.862 201.752 L 93.232 207.818 C 93.977 209.165 95.901 209.2 96.695 207.881 C 96.708 207.86 96.72 207.839 96.732 207.818 L 100.099 201.752 C 103.929 202.22 107.675 203.222 111.228 204.729 L 111.113 211.672 C 111.086 213.211 112.736 214.202 114.083 213.455 C 114.102 213.444 114.122 213.433 114.142 213.421 L 120.088 209.855 C 123.168 212.181 125.91 214.924 128.237 218.004 L 124.671 223.95 C 123.878 225.27 124.813 226.953 126.352 226.979 C 126.363 226.979 126.374 226.979 126.386 226.979 L 126.42 226.979 L 133.363 226.863 C 134.87 230.416 135.872 234.162 136.34 237.992 L 130.274 241.362 C 128.926 242.107 128.891 244.032 130.21 244.826 C 130.231 244.838 130.252 244.85 130.274 244.862 L 136.34 248.232 C 135.872 252.062 134.87 255.808 133.363 259.36 L 126.42 259.245 L 126.386 259.245 C 124.846 259.246 123.884 260.913 124.654 262.246 C 124.66 262.255 124.665 262.264 124.671 262.273 L 128.237 268.22 C 125.91 271.3 123.168 274.043 120.088 276.369 L 114.142 272.803 C 112.822 272.011 111.139 272.945 111.113 274.484 C 111.112 274.506 111.112 274.529 111.113 274.551 L 111.228 281.495 C 107.675 283.001 103.929 284.002 100.099 284.468 L 96.729 278.402 C 95.983 277.055 94.059 277.02 93.265 278.339 C 93.253 278.36 93.24 278.381 93.229 278.402 L 89.859 284.469 C 86.028 284.001 82.282 282.999 78.73 281.492 L 78.845 274.548 C 78.87 273.009 77.219 272.019 75.873 272.767 C 75.854 272.778 75.835 272.789 75.817 272.8 L 69.87 276.366 C 66.79 274.039 64.048 271.297 61.722 268.218 L 65.288 262.27 C 66.079 260.949 65.144 259.267 63.605 259.242 C 63.594 259.242 63.583 259.242 63.573 259.242 L 63.54 259.242 L 56.599 259.352 C 55.092 255.8 54.09 252.054 53.622 248.224 L 59.688 244.854 C 61.035 244.109 61.07 242.185 59.751 241.391 C 59.73 241.378 59.709 241.366 59.688 241.354 L 53.622 237.984 C 54.09 234.156 55.092 230.412 56.599 226.862 L 63.542 226.978 L 63.576 226.978 C 65.115 226.978 66.077 225.311 65.308 223.978 C 65.302 223.968 65.296 223.959 65.291 223.949 L 61.725 218.003 C 64.051 214.923 66.794 212.181 69.874 209.854 L 75.82 213.42 C 77.14 214.212 78.822 213.277 78.848 211.738 C 78.848 211.715 78.848 211.693 78.848 211.671 L 78.733 204.728 C 82.285 203.221 86.031 202.22 89.862 201.752 M 94.98 270.382 C 115.974 270.383 129.096 247.657 118.599 229.475 C 108.103 211.293 81.861 211.292 71.363 229.473 C 68.969 233.619 67.709 238.322 67.709 243.109 C 67.724 258.164 79.924 270.365 94.98 270.381 M 98.993 199.622 L 94.981 206.846 L 90.967 199.622 C 86.032 200.07 81.211 201.36 76.712 203.436 L 76.849 211.704 L 69.764 207.452 C 65.721 210.317 62.192 213.846 59.327 217.889 L 63.576 224.974 L 55.307 224.837 C 53.231 229.336 51.941 234.158 51.493 239.092 L 58.717 243.105 L 51.493 247.118 C 51.941 252.053 53.231 256.875 55.307 261.374 L 63.576 261.237 L 59.327 268.322 C 62.192 272.365 65.721 275.894 69.764 278.759 L 76.849 274.51 L 76.712 282.779 C 81.211 284.855 86.032 286.145 90.967 286.593 L 94.981 279.369 L 98.993 286.593 C 103.928 286.145 108.749 284.855 113.249 282.779 L 113.112 274.51 L 120.197 278.759 C 124.24 275.894 127.769 272.365 130.634 268.322 L 126.385 261.237 L 134.654 261.374 C 136.73 256.875 138.02 252.053 138.468 247.118 L 131.244 243.105 L 138.468 239.092 C 138.02 234.158 136.73 229.336 134.654 224.837 L 126.385 224.974 L 130.634 217.889 C 127.769 213.846 124.241 210.317 120.199 207.452 L 113.114 211.7 L 113.251 203.432 C 108.751 201.356 103.93 200.066 98.995 199.618 L 98.993 199.622 Z M 94.98 268.381 C 75.525 268.381 63.366 247.321 73.093 230.473 C 82.821 213.625 107.139 213.625 116.866 230.473 C 119.084 234.315 120.252 238.673 120.252 243.109 C 120.252 257.067 108.937 268.382 94.98 268.381 Z" style="fill: rgb(51, 51, 51);"/>
  <path class="cls-12" d="M 83.745 250.669 C 83.468 250.669 83.2 250.566 82.996 250.379 L 76.339 244.289 C 75.872 243.865 75.852 243.138 76.294 242.689 L 82.952 235.88 C 83.54 235.26 84.578 235.509 84.821 236.329 C 84.937 236.721 84.829 237.144 84.539 237.432 L 78.685 243.42 L 84.495 248.735 C 85.125 249.313 84.894 250.357 84.078 250.614 C 83.97 250.648 83.858 250.665 83.745 250.665 L 83.745 250.669 Z" style="fill: rgb(250, 163, 27);"/>
  <path class="cls-7" d="M 83.746 235.552 C 84.601 235.554 85.134 236.481 84.705 237.22 C 84.659 237.3 84.603 237.373 84.539 237.439 L 78.685 243.427 L 84.495 248.742 C 85.126 249.319 84.895 250.364 84.08 250.622 C 83.701 250.741 83.288 250.65 82.995 250.382 L 76.338 244.292 C 75.871 243.868 75.851 243.141 76.293 242.692 L 82.951 235.883 C 83.159 235.669 83.446 235.548 83.745 235.548 M 83.745 234.048 C 83.042 234.046 82.369 234.329 81.879 234.832 L 75.221 241.642 C 74.189 242.696 74.234 244.395 75.321 245.392 L 81.98 251.484 C 83.446 252.859 85.85 252.131 86.308 250.174 C 86.526 249.243 86.217 248.267 85.503 247.63 L 80.837 243.362 L 85.608 238.483 C 87.013 237.047 86.336 234.628 84.389 234.13 C 84.178 234.076 83.96 234.048 83.742 234.048 L 83.745 234.048 Z" style="fill: rgb(51, 51, 51);"/>
  <path class="cls-12" d="M 106.043 250.669 C 105.189 250.67 104.654 249.747 105.08 249.007 C 105.127 248.926 105.184 248.85 105.25 248.783 L 111.104 242.793 L 105.294 237.48 C 104.662 236.903 104.893 235.859 105.708 235.601 C 106.087 235.481 106.501 235.572 106.794 235.84 L 113.451 241.929 C 113.917 242.353 113.938 243.08 113.496 243.529 L 106.838 250.339 C 106.628 250.553 106.341 250.672 106.043 250.669 Z" style="fill: rgb(250, 163, 27);"/>
  <path class="cls-7" d="M 106.043 235.552 C 106.32 235.553 106.587 235.656 106.793 235.843 L 113.45 241.932 C 113.916 242.356 113.937 243.083 113.495 243.532 L 106.837 250.342 C 106.248 250.962 105.21 250.713 104.967 249.893 C 104.851 249.502 104.96 249.078 105.25 248.79 L 111.104 242.8 L 105.294 237.487 C 104.662 236.91 104.893 235.866 105.708 235.608 C 105.816 235.574 105.929 235.556 106.043 235.556 M 106.043 234.056 C 105.309 234.057 104.61 234.366 104.116 234.907 C 103.144 235.971 103.218 237.622 104.282 238.594 L 108.948 242.861 L 104.177 247.741 C 102.772 249.178 103.449 251.597 105.396 252.095 C 106.299 252.326 107.258 252.058 107.91 251.391 L 114.568 244.581 C 115.599 243.527 115.554 241.829 114.468 240.831 L 107.809 234.74 C 107.327 234.3 106.699 234.056 106.047 234.056 L 106.043 234.056 Z" style="fill: rgb(51, 51, 51);"/>
  <path class="cls-12" d="M 92.305 250.392 C 92.154 250.392 92.006 250.361 91.868 250.302 C 91.304 250.06 91.043 249.407 91.285 248.843 L 96.652 236.352 C 97.012 235.576 98.077 235.481 98.568 236.181 C 98.783 236.487 98.83 236.88 98.693 237.228 L 93.326 249.72 C 93.15 250.128 92.749 250.392 92.305 250.392 Z" style="fill: rgb(250, 163, 27);"/>
  <path class="cls-7" d="M 97.675 235.679 C 98.471 235.681 99.007 236.495 98.693 237.227 L 93.326 249.719 C 93.15 250.127 92.749 250.392 92.305 250.392 C 92.154 250.392 92.006 250.361 91.868 250.302 C 91.304 250.06 91.043 249.407 91.285 248.843 L 96.652 236.352 C 96.828 235.944 97.23 235.68 97.675 235.68 M 97.675 234.18 C 96.631 234.179 95.687 234.8 95.275 235.758 L 89.907 248.252 C 89.113 250.1 90.618 252.113 92.614 251.876 C 93.541 251.766 94.338 251.171 94.707 250.313 L 100.074 237.82 C 100.815 236.097 99.55 234.178 97.674 234.18 L 97.675 234.18 Z" style="fill: rgb(51, 51, 51);"/>
  <path fill="url(#linear-gradient-4)" d="M 304.999 275.528 L 304.999 271.228 L 297.549 275.528 L 297.549 271.228 L 290.089 275.528 L 290.089 263.158 L 297.549 267.468 L 297.549 263.158 L 304.999 267.468 L 304.999 263.158 L 315.719 269.348 L 304.999 275.528 Z"/>
  <path class="cls-7" d="M 241.35 202.233 L 246.537 202.233 L 246.537 203.333 L 242.579 203.333 L 242.579 205.152 L 246.087 205.152 L 246.087 206.252 L 242.579 206.252 L 242.579 208.131 L 246.587 208.131 L 246.587 209.231 L 241.35 209.231 L 241.35 202.233 Z M 247.45 202.233 L 248.81 202.233 L 250.918 207.61 L 253.018 202.233 L 254.348 202.233 L 251.448 209.279 L 250.358 209.279 L 247.45 202.233 Z M 255.55 202.233 L 260.737 202.233 L 260.737 203.333 L 256.779 203.333 L 256.779 205.152 L 260.287 205.152 L 260.287 206.252 L 256.779 206.252 L 256.779 208.131 L 260.787 208.131 L 260.787 209.231 L 255.55 209.231 L 255.55 202.233 Z M 262.249 202.233 L 263.389 202.233 L 267.137 207.071 L 267.137 202.233 L 268.346 202.233 L 268.346 209.233 L 267.317 209.233 L 263.459 204.252 L 263.459 209.23 L 262.249 209.23 L 262.249 202.233 Z M 271.869 203.373 L 269.65 203.373 L 269.65 202.233 L 275.327 202.233 L 275.327 203.373 L 273.108 203.373 L 273.108 209.23 L 271.869 209.23 L 271.869 203.373 Z" style="fill: rgb(51, 51, 51);"/>
  <path class="cls-1" d="M 236.634 262.489 L 278.494 262.489 L 278.494 275.644 L 236.634 275.644 L 236.634 262.489 Z" style="fill: rgb(255, 164, 0); opacity: 0.82;"/>
  <path class="cls-7" d="M 241.35 265.743 L 246.537 265.743 L 246.537 266.843 L 242.579 266.843 L 242.579 268.662 L 246.087 268.662 L 246.087 269.762 L 242.579 269.762 L 242.579 271.641 L 246.587 271.641 L 246.587 272.741 L 241.35 272.741 L 241.35 265.743 Z M 247.45 265.743 L 248.81 265.743 L 250.918 271.12 L 253.018 265.743 L 254.348 265.743 L 251.448 272.789 L 250.358 272.789 L 247.45 265.743 Z M 255.55 265.743 L 260.737 265.743 L 260.737 266.843 L 256.779 266.843 L 256.779 268.662 L 260.287 268.662 L 260.287 269.762 L 256.779 269.762 L 256.779 271.641 L 260.787 271.641 L 260.787 272.741 L 255.55 272.741 L 255.55 265.743 Z M 262.249 265.743 L 263.389 265.743 L 267.137 270.58 L 267.137 265.743 L 268.346 265.743 L 268.346 272.743 L 267.317 272.743 L 263.459 267.766 L 263.459 272.743 L 262.249 272.743 L 262.249 265.743 Z M 271.869 266.882 L 269.65 266.882 L 269.65 265.743 L 275.327 265.743 L 275.327 266.882 L 273.108 266.882 L 273.108 272.739 L 271.869 272.739 L 271.869 266.882 Z" style="fill: rgb(51, 51, 51);"/>
  <path class="cls-7" d="M 385.727 189.63 C 385.174 189.63 384.727 189.182 384.727 188.63 C 384.724 182.04 388.34 175.98 394.142 172.854 C 394.826 172.501 395.635 173.021 395.599 173.79 C 395.583 174.133 395.391 174.444 395.093 174.613 C 389.938 177.391 386.725 182.775 386.727 188.63 C 386.727 189.182 386.279 189.63 385.727 189.63 Z M 403.291 206.544 C 399.594 206.552 395.986 205.409 392.969 203.274 C 392.328 202.848 392.389 201.887 393.078 201.546 C 393.416 201.378 393.819 201.415 394.121 201.64 C 399.93 205.731 407.747 205.478 413.28 201.02 C 413.879 200.537 414.777 200.883 414.896 201.644 C 414.951 201.997 414.814 202.353 414.536 202.577 C 411.348 205.141 407.381 206.541 403.291 206.544 Z M 419.565 189.63 C 419.012 189.63 418.565 189.182 418.565 188.63 C 418.563 182.31 414.826 176.588 409.039 174.047 C 408.321 173.77 408.172 172.819 408.772 172.336 C 409.074 172.092 409.49 172.045 409.839 172.216 C 416.354 175.075 420.562 181.515 420.565 188.63 C 420.565 189.182 420.117 189.63 419.565 189.63 Z" style="fill: rgb(51, 51, 51);"/>
  <rect class="cls-11" x="383.59" y="191.421" width="8.389" height="8.389" rx="1" style="fill: rgb(255, 255, 255);"/>
  <path class="cls-7" d="M 389.98 193.421 L 389.98 197.81 L 385.59 197.81 L 385.59 193.421 L 389.98 193.421 M 390.98 191.421 L 384.59 191.421 C 384.037 191.421 383.59 191.869 383.59 192.421 L 383.59 198.81 C 383.59 199.362 384.037 199.81 384.59 199.81 L 390.98 199.81 C 391.532 199.81 391.98 199.362 391.98 198.81 L 391.98 192.421 C 391.98 191.869 391.532 191.421 390.98 191.421 Z" style="fill: rgb(51, 51, 51);"/>
  <circle class="cls-11" cx="403.04" cy="172.105" r="4.384" style="fill: rgb(255, 255, 255);"/>
  <path class="cls-7" d="M 403.04 169.72 C 404.876 169.719 406.024 171.706 405.107 173.297 C 404.189 174.887 401.894 174.888 400.976 173.298 C 400.766 172.936 400.656 172.524 400.656 172.105 C 400.657 170.789 401.723 169.722 403.04 169.72 M 403.04 167.72 C 399.664 167.719 397.553 171.373 399.241 174.297 C 400.928 177.22 405.147 177.221 406.836 174.298 C 407.221 173.632 407.424 172.875 407.424 172.105 C 407.424 169.684 405.461 167.72 403.04 167.72 Z" style="fill: rgb(51, 51, 51);"/>
  <circle class="cls-11" cx="418.016" cy="195.616" r="4.384" style="fill: rgb(255, 255, 255);"/>
  <path class="cls-7" d="M 418.016 193.23 C 419.851 193.231 420.997 195.218 420.079 196.807 C 419.16 198.396 416.866 198.395 415.95 196.805 C 415.741 196.443 415.631 196.032 415.631 195.614 C 415.632 194.298 416.699 193.231 418.016 193.23 M 418.016 191.23 C 414.641 191.23 412.532 194.883 414.219 197.806 C 415.906 200.729 420.125 200.729 421.812 197.806 C 422.197 197.14 422.4 196.384 422.4 195.614 C 422.4 193.193 420.437 191.23 418.016 191.23 Z M 393.285 301.371 L 391.912 298.907 L 394.729 298.952 L 397.548 298.995 L 396.103 301.415 L 394.658 303.835 L 393.285 301.371 Z M 419.615 311.858 L 422.436 311.899 L 420.989 314.317 L 419.543 316.737 L 418.169 314.277 L 416.795 311.816 L 419.615 311.858 Z M 395.724 330.568 L 394.039 332.831 L 392.925 330.243 L 391.81 327.654 L 394.609 327.98 L 397.408 328.306 L 395.724 330.568 Z" style="fill: rgb(51, 51, 51);"/>
  <path class="cls-7" d="M 385.727 316.29 C 385.174 316.29 384.727 315.842 384.727 315.29 C 384.724 308.7 388.34 302.64 394.142 299.514 C 394.819 299.148 395.639 299.653 395.617 300.422 C 395.607 300.78 395.407 301.104 395.093 301.274 C 389.938 304.051 386.725 309.435 386.727 315.29 C 386.727 315.842 386.279 316.29 385.727 316.29 Z M 403.291 333.208 C 399.594 333.216 395.987 332.073 392.969 329.938 C 392.352 329.478 392.465 328.522 393.172 328.218 C 393.482 328.085 393.839 328.117 394.121 328.304 C 399.93 332.395 407.747 332.142 413.28 327.684 C 413.879 327.201 414.777 327.547 414.896 328.308 C 414.951 328.661 414.814 329.017 414.536 329.241 C 411.348 331.805 407.381 333.205 403.291 333.208 Z M 419.565 316.29 C 419.012 316.29 418.565 315.842 418.565 315.29 C 418.563 308.97 414.826 303.248 409.039 300.707 C 408.321 300.43 408.172 299.479 408.772 298.996 C 409.074 298.752 409.49 298.705 409.839 298.876 C 416.352 301.736 420.558 308.177 420.56 315.29 C 420.56 315.84 420.115 316.287 419.565 316.29 Z" style="fill: rgb(51, 51, 51);"/>
  <rect class="cls-11" x="383.59" y="318.085" width="8.389" height="8.389" rx="1" style="fill: rgb(255, 255, 255);"/>
  <path class="cls-7" d="M 389.98 320.085 L 389.98 324.475 L 385.59 324.475 L 385.59 320.085 L 389.98 320.085 M 390.98 318.085 L 384.59 318.085 C 384.037 318.085 383.59 318.533 383.59 319.085 L 383.59 325.475 C 383.59 326.027 384.037 326.475 384.59 326.475 L 390.98 326.475 C 391.532 326.475 391.98 326.027 391.98 325.475 L 391.98 319.085 C 391.98 318.533 391.532 318.085 390.98 318.085 Z" style="fill: rgb(51, 51, 51);"/>
  <circle class="cls-11" cx="403.04" cy="298.769" r="4.384" style="fill: rgb(255, 255, 255);"/>
  <path class="cls-7" d="M 403.04 296.385 C 404.875 296.385 406.022 298.372 405.104 299.961 C 404.187 301.55 401.893 301.55 400.975 299.961 C 400.766 299.599 400.656 299.188 400.656 298.769 C 400.657 297.453 401.723 296.386 403.04 296.385 M 403.04 294.385 C 399.665 294.385 397.556 298.038 399.243 300.961 C 400.93 303.884 405.149 303.884 406.836 300.961 C 407.221 300.295 407.424 299.539 407.424 298.769 C 407.424 296.348 405.461 294.385 403.04 294.385 Z" style="fill: rgb(51, 51, 51);"/>
  <circle class="cls-11" cx="418.016" cy="322.28" r="4.384" style="fill: rgb(255, 255, 255);"/>
  <path class="cls-7" d="M 418.016 319.896 C 419.851 319.897 420.997 321.884 420.079 323.473 C 419.16 325.062 416.866 325.061 415.95 323.471 C 415.741 323.109 415.631 322.698 415.631 322.28 C 415.632 320.964 416.699 319.897 418.016 319.896 M 418.016 317.896 C 414.641 317.896 412.532 321.549 414.219 324.472 C 415.906 327.395 420.125 327.395 421.812 324.472 C 422.197 323.806 422.4 323.05 422.4 322.28 C 422.4 319.859 420.437 317.896 418.016 317.896 Z M 393.285 238.039 L 391.912 235.574 L 394.729 235.619 L 397.548 235.663 L 396.103 238.083 L 394.658 240.503 L 393.285 238.039 Z M 419.615 248.526 L 422.436 248.567 L 420.989 250.985 L 419.543 253.405 L 418.169 250.944 L 416.795 248.484 L 419.615 248.526 Z M 395.724 267.236 L 394.039 269.499 L 392.925 266.911 L 391.81 264.322 L 394.609 264.648 L 397.408 264.973 L 395.724 267.236 Z" style="fill: rgb(51, 51, 51);"/>
  <path class="cls-7" d="M 385.727 252.958 C 385.174 252.958 384.727 252.51 384.727 251.958 C 384.724 245.368 388.34 239.308 394.142 236.182 C 394.819 235.816 395.639 236.321 395.617 237.09 C 395.607 237.448 395.407 237.772 395.093 237.942 C 389.938 240.719 386.725 246.103 386.727 251.958 C 386.727 252.51 386.279 252.958 385.727 252.958 Z M 403.291 269.876 C 399.594 269.884 395.986 268.741 392.969 266.606 C 392.328 266.18 392.389 265.219 393.078 264.878 C 393.416 264.71 393.819 264.747 394.121 264.972 C 399.93 269.063 407.747 268.81 413.28 264.352 C 413.879 263.869 414.777 264.215 414.896 264.976 C 414.951 265.329 414.814 265.685 414.536 265.909 C 411.348 268.473 407.381 269.873 403.291 269.876 Z M 419.565 252.958 C 419.012 252.958 418.565 252.51 418.565 251.958 C 418.563 245.638 414.826 239.916 409.039 237.375 C 408.321 237.098 408.172 236.147 408.772 235.664 C 409.074 235.42 409.49 235.373 409.839 235.544 C 416.352 238.404 420.558 244.845 420.56 251.958 C 420.56 252.508 420.115 252.955 419.565 252.958 Z" style="fill: rgb(51, 51, 51);"/>
  <rect class="cls-11" x="383.59" y="254.753" width="8.389" height="8.389" rx="1" style="fill: rgb(255, 255, 255);"/>
  <path class="cls-7" d="M 389.98 256.753 L 389.98 261.143 L 385.59 261.143 L 385.59 256.753 L 389.98 256.753 M 390.98 254.753 L 384.59 254.753 C 384.037 254.753 383.59 255.201 383.59 255.753 L 383.59 262.143 C 383.59 262.695 384.037 263.143 384.59 263.143 L 390.98 263.143 C 391.532 263.143 391.98 262.695 391.98 262.143 L 391.98 255.753 C 391.98 255.201 391.532 254.753 390.98 254.753 Z" style="fill: rgb(51, 51, 51);"/>
  <circle class="cls-11" cx="403.04" cy="235.437" r="4.384" style="fill: rgb(255, 255, 255);"/>
  <path class="cls-7" d="M 403.04 233.053 C 404.875 233.053 406.022 235.04 405.104 236.629 C 404.187 238.218 401.893 238.218 400.975 236.629 C 400.766 236.267 400.656 235.856 400.656 235.437 C 400.657 234.121 401.723 233.054 403.04 233.053 M 403.04 231.053 C 399.665 231.053 397.556 234.706 399.243 237.629 C 400.93 240.552 405.149 240.552 406.836 237.629 C 407.221 236.963 407.424 236.207 407.424 235.437 C 407.424 233.016 405.461 231.053 403.04 231.053 Z" style="fill: rgb(51, 51, 51);"/>
  <circle class="cls-11" cx="418.016" cy="258.948" r="4.384" style="fill: rgb(255, 255, 255);"/>
  <path class="cls-7" d="M 418.016 256.564 C 419.851 256.565 420.997 258.552 420.079 260.141 C 419.16 261.73 416.866 261.729 415.95 260.139 C 415.741 259.777 415.631 259.366 415.631 258.948 C 415.632 257.632 416.699 256.565 418.016 256.564 M 418.016 254.564 C 414.641 254.564 412.532 258.217 414.219 261.14 C 415.906 264.063 420.125 264.063 421.812 261.14 C 422.197 260.474 422.4 259.718 422.4 258.948 C 422.4 256.527 420.437 254.564 418.016 254.564 Z" style="fill: rgb(51, 51, 51);"/>
</svg>