<?xml version="1.0" encoding="UTF-8"?><svg id="_Überschriften" xmlns="http://www.w3.org/2000/svg" xmlns:xlink="http://www.w3.org/1999/xlink" viewBox="0 0 600 459.05"><defs><clipPath id="clippath"><polygon points="97.36 152.09 0 152.09 0 0 118.09 0 97.36 152.09" fill="none"/></clipPath><clipPath id="clippath-1"><polygon points="123.84 0 171.04 1.15 171.04 153.23 103.12 152.09 123.84 0" fill="none"/></clipPath><clipPath id="clippath-2"><polygon points="526.32 152.09 428.96 152.09 428.96 0 547.04 0 526.32 152.09" fill="none"/></clipPath><clipPath id="clippath-3"><polygon points="552.8 0 600 1.15 600 153.23 532.08 152.09 552.8 0" fill="none"/></clipPath><clipPath id="clippath-4"><polygon points="97.36 457.08 0 457.08 0 304.99 118.09 304.99 97.36 457.08" fill="none"/></clipPath><clipPath id="clippath-5"><polygon points="123.84 304.99 171.04 306.13 171.04 458.22 103.12 457.08 123.84 304.99" fill="none"/></clipPath><clipPath id="clippath-6"><polygon points="526.32 457.08 428.96 457.08 428.96 304.99 547.04 304.99 526.32 457.08" fill="none"/></clipPath><clipPath id="clippath-7"><polygon points="552.8 304.99 600 306.13 600 458.22 532.08 457.08 552.8 304.99" fill="none"/></clipPath></defs><g id="Illustration_-_tree_topology"><polyline points="122.08 383.65 519.35 383.65 519.35 60.23 124.61 60.23" fill="none" stroke="#b0c1ff" stroke-linecap="round" stroke-linejoin="round" stroke-width="3"/><line x1="92.53" y1="60.4" x2="92.53" y2="383.82" fill="none" stroke="#b0c1ff" stroke-linecap="round" stroke-linejoin="round" stroke-width="3"/><line x1="459.85" y1="119.02" x2="155.84" y2="315" fill="none" stroke="#b0c1ff" stroke-linecap="round" stroke-linejoin="round" stroke-width="3"/><line x1="147.78" y1="119.42" x2="451.93" y2="324.47" fill="none" stroke="#b0c1ff" stroke-linecap="round" stroke-linejoin="round" stroke-width="3"/><g><g clip-path="url(#clippath)"><g><polygon points="117.66 146.41 71.46 146.41 74.1 126.53 115.4 126.53 117.66 146.41" fill="#858585"/><polygon points="74.1 126.53 115.4 126.53 115.76 129.71 73.68 129.71 74.1 126.53" fill="#676766"/><path d="M3.45,109.88v12.28c0,2.49,2.04,4.53,4.53,4.53H181.15c2.49,0,4.53-2.04,4.53-4.53v-12.28H3.45Z" fill="#d1d0d1"/><path d="M185.68,5.64c0-2.49-2.04-4.53-4.53-4.53H7.98C5.49,1.11,3.45,3.15,3.45,5.64V109.88H185.68V5.64Z" fill="#535252"/><rect x="9.87" y="7.15" width="169.39" height="96.69" rx="2.51" ry="2.51" fill="#819bff"/><polygon points="71.46 146.41 117.66 146.41 125.79 148.33 63.33 148.38 71.46 146.41" fill="#d1d0d1"/><polygon points="125.36 152.1 63.76 152.1 63.35 148.38 125.79 148.33 125.36 152.1" fill="#858585"/><path d="M97.8,118.82c0,1.79-1.45,3.24-3.24,3.24s-3.24-1.45-3.24-3.24,1.45-3.24,3.24-3.24,3.24,1.45,3.24,3.24Z" fill="#1f1f1f"/><g><path d="M169.04,23.44H22.51v-7.52c0-1.74,1.41-3.15,3.15-3.15H165.89c1.74,0,3.15,1.41,3.15,3.15v7.52Z" fill="#6182ff" fill-rule="evenodd"/><path d="M165.62,98.22H25.93c-1.89,0-3.43-1.53-3.43-3.43V23.44H169.04V94.79c0,1.89-1.53,3.43-3.43,3.43Z" fill="#d0daff" fill-rule="evenodd"/><circle cx="148.88" cy="18.1" r="2.23" fill="red"/><circle cx="155.3" cy="18.1" r="2.23" fill="#ffbc00"/><circle cx="161.71" cy="18.1" r="2.23" fill="#76d671"/><polygon points="61.47 20.34 141.62 20.34 141.62 15.87 27 15.87 27 20.34 57.79 20.34 61.47 20.34" fill="#f0f0ef"/></g><g><polygon points="111.35 7.15 14.62 103.88 46.63 103.88 142.84 7.15 111.35 7.15" fill="#fff" opacity=".3"/><polygon points="155.7 7.15 58.97 103.88 76.54 103.88 172.75 7.15 155.7 7.15" fill="#fff" opacity=".3"/></g></g></g><g clip-path="url(#clippath-1)"><g id="Proxyserver"><rect x="94.58" y="1.11" width="74.03" height="150.99" rx="4.9" ry="4.9" fill="#676766"/><path d="M93.23,133.86h76.74v16.25c0,1.1-.89,1.99-1.99,1.99H95.22c-1.1,0-1.99-.89-1.99-1.99v-16.25h0Z" fill="#858585"/><line x1="159.42" y1="17.45" x2="101.73" y2="17.45" fill="none" stroke="#333" stroke-miterlimit="10" stroke-width="3.83"/><line x1="159.42" y1="30.81" x2="101.73" y2="30.81" fill="none" stroke="#333" stroke-miterlimit="10" stroke-width="3.83"/><line x1="159.42" y1="44.18" x2="101.73" y2="44.18" fill="none" stroke="#333" stroke-miterlimit="10" stroke-width="3.83"/><line x1="159.42" y1="57.54" x2="101.73" y2="57.54" fill="none" stroke="#333" stroke-miterlimit="10" stroke-width="3.83"/><line x1="131.6" y1="57.54" x2="118.63" y2="57.54" fill="none" stroke="#54cc4e" stroke-miterlimit="10" stroke-width="3.83"/><line x1="153.68" y1="44.18" x2="140.71" y2="44.18" fill="none" stroke="#54cc4e" stroke-miterlimit="10" stroke-width="3.83"/><line x1="118.63" y1="30.81" x2="105.66" y2="30.81" fill="none" stroke="#54cc4e" stroke-miterlimit="10" stroke-width="3.83"/><line x1="127.31" y1="17.45" x2="114.34" y2="17.45" fill="none" stroke="#54cc4e" stroke-miterlimit="10" stroke-width="3.83"/></g></g></g><g><g clip-path="url(#clippath-2)"><g><polygon points="546.62 146.41 500.42 146.41 503.06 126.53 544.36 126.53 546.62 146.41" fill="#858585"/><polygon points="503.06 126.53 544.36 126.53 544.72 129.71 502.64 129.71 503.06 126.53" fill="#676766"/><path d="M432.41,109.88v12.28c0,2.49,2.04,4.53,4.53,4.53h173.17c2.49,0,4.53-2.04,4.53-4.53v-12.28h-182.23Z" fill="#d1d0d1"/><path d="M614.63,5.64c0-2.49-2.04-4.53-4.53-4.53h-173.17c-2.49,0-4.53,2.04-4.53,4.53V109.88h182.23V5.64Z" fill="#535252"/><rect x="438.83" y="7.15" width="169.39" height="96.69" rx="2.51" ry="2.51" fill="#819bff"/><polygon points="500.42 146.41 546.62 146.41 554.75 148.33 492.29 148.38 500.42 146.41" fill="#d1d0d1"/><polygon points="554.32 152.1 492.72 152.1 492.31 148.38 554.75 148.33 554.32 152.1" fill="#858585"/><path d="M526.76,118.82c0,1.79-1.45,3.24-3.24,3.24s-3.24-1.45-3.24-3.24,1.45-3.24,3.24-3.24,3.24,1.45,3.24,3.24Z" fill="#1f1f1f"/><g><path d="M598,23.44h-146.54v-7.52c0-1.74,1.41-3.15,3.15-3.15h140.24c1.74,0,3.15,1.41,3.15,3.15v7.52Z" fill="#6182ff" fill-rule="evenodd"/><path d="M594.57,98.22h-139.68c-1.89,0-3.43-1.53-3.43-3.43V23.44h146.54V94.79c0,1.89-1.53,3.43-3.43,3.43Z" fill="#d0daff" fill-rule="evenodd"/><circle cx="577.84" cy="18.1" r="2.23" fill="red"/><circle cx="584.26" cy="18.1" r="2.23" fill="#ffbc00"/><circle cx="590.67" cy="18.1" r="2.23" fill="#76d671"/><polygon points="490.43 20.34 570.58 20.34 570.58 15.87 455.96 15.87 455.96 20.34 486.75 20.34 490.43 20.34" fill="#f0f0ef"/></g><g><polygon points="540.31 7.15 443.58 103.88 475.58 103.88 571.8 7.15 540.31 7.15" fill="#fff" opacity=".3"/><polygon points="584.66 7.15 487.93 103.88 505.5 103.88 601.71 7.15 584.66 7.15" fill="#fff" opacity=".3"/></g></g></g><g clip-path="url(#clippath-3)"><g id="Proxyserver-2"><rect x="523.54" y="1.11" width="74.03" height="150.99" rx="4.9" ry="4.9" fill="#676766"/><path d="M522.19,133.86h76.74v16.25c0,1.1-.89,1.99-1.99,1.99h-72.76c-1.1,0-1.99-.89-1.99-1.99v-16.25h0Z" fill="#858585"/><line x1="588.38" y1="17.45" x2="530.69" y2="17.45" fill="none" stroke="#333" stroke-miterlimit="10" stroke-width="3.83"/><line x1="588.38" y1="30.81" x2="530.69" y2="30.81" fill="none" stroke="#333" stroke-miterlimit="10" stroke-width="3.83"/><line x1="588.38" y1="44.18" x2="530.69" y2="44.18" fill="none" stroke="#333" stroke-miterlimit="10" stroke-width="3.83"/><line x1="588.38" y1="57.54" x2="530.69" y2="57.54" fill="none" stroke="#333" stroke-miterlimit="10" stroke-width="3.83"/><line x1="560.56" y1="57.54" x2="547.59" y2="57.54" fill="none" stroke="#54cc4e" stroke-miterlimit="10" stroke-width="3.83"/><line x1="582.64" y1="44.18" x2="569.67" y2="44.18" fill="none" stroke="#54cc4e" stroke-miterlimit="10" stroke-width="3.83"/><line x1="547.59" y1="30.81" x2="534.62" y2="30.81" fill="none" stroke="#54cc4e" stroke-miterlimit="10" stroke-width="3.83"/><line x1="556.27" y1="17.45" x2="543.3" y2="17.45" fill="none" stroke="#54cc4e" stroke-miterlimit="10" stroke-width="3.83"/></g></g></g><g><g clip-path="url(#clippath-4)"><g><polygon points="117.66 451.4 71.46 451.4 74.1 431.52 115.4 431.52 117.66 451.4" fill="#858585"/><polygon points="74.1 431.52 115.4 431.52 115.76 434.7 73.68 434.7 74.1 431.52" fill="#676766"/><path d="M3.45,414.87v12.28c0,2.49,2.04,4.53,4.53,4.53H181.15c2.49,0,4.53-2.04,4.53-4.53v-12.28H3.45Z" fill="#d1d0d1"/><path d="M185.68,310.63c0-2.49-2.04-4.53-4.53-4.53H7.98c-2.49,0-4.53,2.04-4.53,4.53v104.24H185.68v-104.24Z" fill="#535252"/><rect x="9.87" y="312.14" width="169.39" height="96.69" rx="2.51" ry="2.51" fill="#819bff"/><polygon points="71.46 451.4 117.66 451.4 125.79 453.32 63.33 453.36 71.46 451.4" fill="#d1d0d1"/><polygon points="125.36 457.09 63.76 457.09 63.35 453.36 125.79 453.32 125.36 457.09" fill="#858585"/><path d="M97.8,423.81c0,1.79-1.45,3.24-3.24,3.24s-3.24-1.45-3.24-3.24,1.45-3.24,3.24-3.24,3.24,1.45,3.24,3.24Z" fill="#1f1f1f"/><g><path d="M169.04,328.43H22.51v-7.52c0-1.74,1.41-3.15,3.15-3.15H165.89c1.74,0,3.15,1.41,3.15,3.15v7.52Z" fill="#6182ff" fill-rule="evenodd"/><path d="M165.62,403.21H25.93c-1.89,0-3.43-1.53-3.43-3.43v-71.36H169.04v71.36c0,1.89-1.53,3.43-3.43,3.43Z" fill="#d0daff" fill-rule="evenodd"/><circle cx="148.88" cy="323.09" r="2.23" fill="red"/><circle cx="155.3" cy="323.09" r="2.23" fill="#ffbc00"/><circle cx="161.71" cy="323.09" r="2.23" fill="#76d671"/><polygon points="61.47 325.32 141.62 325.32 141.62 320.86 27 320.86 27 325.32 57.79 325.32 61.47 325.32" fill="#f0f0ef"/></g><g><polygon points="111.35 312.14 14.62 408.87 46.63 408.87 142.84 312.14 111.35 312.14" fill="#fff" opacity=".3"/><polygon points="155.7 312.14 58.97 408.87 76.54 408.87 172.75 312.14 155.7 312.14" fill="#fff" opacity=".3"/></g></g></g><g clip-path="url(#clippath-5)"><g id="Proxyserver-3"><rect x="94.58" y="306.1" width="74.03" height="150.99" rx="4.9" ry="4.9" fill="#676766"/><path d="M93.23,438.85h76.74v16.25c0,1.1-.89,1.99-1.99,1.99H95.22c-1.1,0-1.99-.89-1.99-1.99v-16.25h0Z" fill="#858585"/><line x1="159.42" y1="322.44" x2="101.73" y2="322.44" fill="none" stroke="#333" stroke-miterlimit="10" stroke-width="3.83"/><line x1="159.42" y1="335.8" x2="101.73" y2="335.8" fill="none" stroke="#333" stroke-miterlimit="10" stroke-width="3.83"/><line x1="159.42" y1="349.16" x2="101.73" y2="349.16" fill="none" stroke="#333" stroke-miterlimit="10" stroke-width="3.83"/><line x1="159.42" y1="362.53" x2="101.73" y2="362.53" fill="none" stroke="#333" stroke-miterlimit="10" stroke-width="3.83"/><line x1="131.6" y1="362.53" x2="118.63" y2="362.53" fill="none" stroke="#54cc4e" stroke-miterlimit="10" stroke-width="3.83"/><line x1="153.68" y1="349.16" x2="140.71" y2="349.16" fill="none" stroke="#54cc4e" stroke-miterlimit="10" stroke-width="3.83"/><line x1="118.63" y1="335.8" x2="105.66" y2="335.8" fill="none" stroke="#54cc4e" stroke-miterlimit="10" stroke-width="3.83"/><line x1="127.31" y1="322.44" x2="114.34" y2="322.44" fill="none" stroke="#54cc4e" stroke-miterlimit="10" stroke-width="3.83"/></g></g></g><g><g clip-path="url(#clippath-6)"><g><polygon points="546.62 451.4 500.42 451.4 503.06 431.52 544.36 431.52 546.62 451.4" fill="#858585"/><polygon points="503.06 431.52 544.36 431.52 544.72 434.7 502.64 434.7 503.06 431.52" fill="#676766"/><path d="M432.41,414.87v12.28c0,2.49,2.04,4.53,4.53,4.53h173.17c2.49,0,4.53-2.04,4.53-4.53v-12.28h-182.23Z" fill="#d1d0d1"/><path d="M614.63,310.63c0-2.49-2.04-4.53-4.53-4.53h-173.17c-2.49,0-4.53,2.04-4.53,4.53v104.24h182.23v-104.24Z" fill="#535252"/><rect x="438.83" y="312.14" width="169.39" height="96.69" rx="2.51" ry="2.51" fill="#819bff"/><polygon points="500.42 451.4 546.62 451.4 554.75 453.32 492.29 453.36 500.42 451.4" fill="#d1d0d1"/><polygon points="554.32 457.09 492.72 457.09 492.31 453.36 554.75 453.32 554.32 457.09" fill="#858585"/><path d="M526.76,423.81c0,1.79-1.45,3.24-3.24,3.24s-3.24-1.45-3.24-3.24,1.45-3.24,3.24-3.24,3.24,1.45,3.24,3.24Z" fill="#1f1f1f"/><g><path d="M598,328.43h-146.54v-7.52c0-1.74,1.41-3.15,3.15-3.15h140.24c1.74,0,3.15,1.41,3.15,3.15v7.52Z" fill="#6182ff" fill-rule="evenodd"/><path d="M594.57,403.21h-139.68c-1.89,0-3.43-1.53-3.43-3.43v-71.36h146.54v71.36c0,1.89-1.53,3.43-3.43,3.43Z" fill="#d0daff" fill-rule="evenodd"/><circle cx="577.84" cy="323.09" r="2.23" fill="red"/><circle cx="584.26" cy="323.09" r="2.23" fill="#ffbc00"/><circle cx="590.67" cy="323.09" r="2.23" fill="#76d671"/><polygon points="490.43 325.32 570.58 325.32 570.58 320.86 455.96 320.86 455.96 325.32 486.75 325.32 490.43 325.32" fill="#f0f0ef"/></g><g><polygon points="540.31 312.14 443.58 408.87 475.58 408.87 571.8 312.14 540.31 312.14" fill="#fff" opacity=".3"/><polygon points="584.66 312.14 487.93 408.87 505.5 408.87 601.71 312.14 584.66 312.14" fill="#fff" opacity=".3"/></g></g></g><g clip-path="url(#clippath-7)"><g id="Proxyserver-4"><rect x="523.54" y="306.1" width="74.03" height="150.99" rx="4.9" ry="4.9" fill="#676766"/><path d="M522.19,438.85h76.74v16.25c0,1.1-.89,1.99-1.99,1.99h-72.76c-1.1,0-1.99-.89-1.99-1.99v-16.25h0Z" fill="#858585"/><line x1="588.38" y1="322.44" x2="530.69" y2="322.44" fill="none" stroke="#333" stroke-miterlimit="10" stroke-width="3.83"/><line x1="588.38" y1="335.8" x2="530.69" y2="335.8" fill="none" stroke="#333" stroke-miterlimit="10" stroke-width="3.83"/><line x1="588.38" y1="349.16" x2="530.69" y2="349.16" fill="none" stroke="#333" stroke-miterlimit="10" stroke-width="3.83"/><line x1="588.38" y1="362.53" x2="530.69" y2="362.53" fill="none" stroke="#333" stroke-miterlimit="10" stroke-width="3.83"/><line x1="560.56" y1="362.53" x2="547.59" y2="362.53" fill="none" stroke="#54cc4e" stroke-miterlimit="10" stroke-width="3.83"/><line x1="582.64" y1="349.16" x2="569.67" y2="349.16" fill="none" stroke="#54cc4e" stroke-miterlimit="10" stroke-width="3.83"/><line x1="547.59" y1="335.8" x2="534.62" y2="335.8" fill="none" stroke="#54cc4e" stroke-miterlimit="10" stroke-width="3.83"/><line x1="556.27" y1="322.44" x2="543.3" y2="322.44" fill="none" stroke="#54cc4e" stroke-miterlimit="10" stroke-width="3.83"/></g></g></g></g></svg>